<?xml version="1.0" standalone="no"?>
<!DOCTYPE svg PUBLIC "-//W3C//DTD SVG 20010904//EN"
 "http://www.w3.org/TR/2001/REC-SVG-20010904/DTD/svg10.dtd">
<svg version="1.0" xmlns="http://www.w3.org/2000/svg"
 width="700.000000pt" height="700.000000pt" viewBox="0 0 700.000000 700.000000"
 preserveAspectRatio="xMidYMid meet">
<metadata>
Created by potrace 1.14, written by Peter Selinger 2001-2017
</metadata>
<g transform="translate(0.000000,700.000000) scale(0.100000,-0.100000)"
fill="#000000" stroke="none">
<path d="M0 3500 l0 -3500 3500 0 3500 0 0 3500 0 3500 -3500 0 -3500 0 0
-3500z m1997 0 c189 -569 346 -1043 349 -1052 5 -17 -8 -18 -184 -18 l-190 0
-89 263 -88 262 -335 0 -334 0 -86 -260 -85 -260 -187 -3 c-158 -2 -188 0
-188 12 0 11 659 1989 691 2074 9 22 9 22 196 20 l187 -3 343 -1035z m995 655
c128 -212 235 -385 238 -385 3 0 109 172 235 381 127 210 235 383 240 385 6 3
97 3 202 2 l192 -3 -108 -175 c-60 -96 -207 -335 -328 -532 l-221 -356 300
-489 c165 -268 309 -503 320 -520 l20 -33 -201 0 -200 0 -222 370 c-122 204
-225 370 -229 370 -4 0 -107 -166 -229 -370 l-222 -370 -200 0 c-109 0 -199 3
-199 6 0 3 142 236 316 519 287 467 314 516 303 536 -6 13 -153 251 -325 530
-173 279 -314 510 -314 513 0 3 90 6 199 6 l199 0 234 -385z m1638 -665 l0
-1050 -180 0 -180 0 0 1050 0 1050 180 0 180 0 0 -1050z m1820 870 l0 -180
-305 0 -305 0 0 -870 0 -870 -180 0 -180 0 0 870 0 870 -305 0 -305 0 0 173
c0 96 3 177 7 180 3 4 359 7 790 7 l783 0 0 -180z"/>
<path d="M1451 4074 c-6 -22 -67 -214 -134 -429 l-124 -390 260 -3 c143 -1
262 0 265 3 4 4 -245 844 -254 854 -1 1 -8 -14 -13 -35z"/>
</g>
</svg>
